<?xml version="1.0" encoding="utf-8"?>
<!-- Generator: Adobe Illustrator 22.1.0, SVG Export Plug-In . SVG Version: 6.00 Build 0)  -->
<svg xmlns="http://www.w3.org/2000/svg" xmlns:xlink="http://www.w3.org/1999/xlink" version="1.1" id="Layer_1" x="0px" y="0px" viewBox="0 0 100 100" style="enable-background:new 0 0 100 100;" xml:space="preserve" width="50px" height="50px">
<style type="text/css">
	.st0{fill:#F1BC19;}
	.st1{fill:#E6EDB7;}
	.st2{fill:#88AE45;}
	.st3{fill:#FBCD59;}
	.st4{fill:#FFFFFF;}
	.st5{fill:#BABCE2;}
	.st6{fill:#472B29;}
	.st7{fill:#FDFCEE;}
	.st8{fill:#8A8DCE;}
</style>
<g>
	<circle class="st0" cx="77" cy="13" r="1"/>
</g>
<g>
	<circle class="st1" cx="50" cy="50" r="37"/>
</g>
<g>
	<circle class="st0" cx="83" cy="15" r="4"/>
</g>
<g>
	<circle class="st2" cx="87" cy="24" r="2"/>
</g>
<g>
	<circle class="st3" cx="81" cy="76" r="2"/>
</g>
<g>
	<circle class="st3" cx="15" cy="63" r="4"/>
</g>
<g>
	<circle class="st2" cx="25" cy="87" r="2"/>
</g>
<g>
	<circle class="st4" cx="18.5" cy="51.5" r="2.5"/>
</g>
<g>
	<circle class="st4" cx="79.5" cy="33.5" r="1.5"/>
</g>
<g>
	<g>
		<path class="st5" d="M35,72.3c-4,0-7.3-3.3-7.3-7.3V35c0-4,3.3-7.3,7.3-7.3h30c4,0,7.3,3.3,7.3,7.3v30c0,4-3.3,7.3-7.3,7.3H35z"/>
	</g>
	<g>
		<path class="st6" d="M65,28.4c3.6,0,6.6,3,6.6,6.6v30c0,3.6-3,6.6-6.6,6.6H35c-3.6,0-6.6-3-6.6-6.6V35c0-3.6,3-6.6,6.6-6.6H65     M65,27H35c-4.4,0-8,3.6-8,8v30c0,4.4,3.6,8,8,8h30c4.4,0,8-3.6,8-8V35C73,30.6,69.4,27,65,27L65,27z"/>
	</g>
</g>
<g>
	<path class="st7" d="M68.5,47.9v1.8V64c0,2.5-2,4.5-4.5,4.5H36c-2.5,0-4.5-2-4.5-4.5V36c0-2.5,2-4.5,4.5-4.5h25.4H64   c2.5,0,4.5,2,4.5,4.5v3.4v2v1v1.1v2.9V47.9"/>
</g>
<g>
	<path class="st6" d="M68.5,47.4c-0.3,0-0.5-0.2-0.5-0.5V43c0-0.3,0.2-0.5,0.5-0.5S69,42.7,69,43v3.9C69,47.2,68.8,47.4,68.5,47.4z"/>
</g>
<g>
	<path class="st6" d="M68.5,40.5c-0.3,0-0.5-0.2-0.5-0.5v-2c0-0.3,0.2-0.5,0.5-0.5S69,37.7,69,38v2C69,40.3,68.8,40.5,68.5,40.5z"/>
</g>
<g>
	<path class="st6" d="M64,69H36c-2.8,0-5-2.2-5-5V36c0-2.8,2.2-5,5-5h25.4c0.3,0,0.5,0.2,0.5,0.5S61.7,32,61.4,32H36   c-2.2,0-4,1.8-4,4v28c0,2.2,1.8,4,4,4h28c2.2,0,4-1.8,4-4V49.6c0-0.3,0.2-0.5,0.5-0.5s0.5,0.2,0.5,0.5V64C69,66.8,66.8,69,64,69z"/>
</g>
<g>
	<g>
		<path class="st8" d="M46,61.5c-4.1,0-7.5-3.4-7.5-7.5v-8c0-4.1,3.4-7.5,7.5-7.5h8c4.1,0,7.5,3.4,7.5,7.5v8c0,4.1-3.4,7.5-7.5,7.5    H46z"/>
	</g>
	<g>
		<path class="st6" d="M54,39c3.9,0,7,3.1,7,7v8c0,3.9-3.1,7-7,7h-8c-3.9,0-7-3.1-7-7v-8c0-3.9,3.1-7,7-7H54 M54,38h-8    c-4.4,0-8,3.6-8,8v8c0,4.4,3.6,8,8,8h8c4.4,0,8-3.6,8-8v-8C62,41.6,58.4,38,54,38L54,38z"/>
	</g>
</g>
<g>
	<g>
		<circle class="st7" cx="50" cy="50" r="5.5"/>
	</g>
	<g>
		<path class="st6" d="M50,45c2.8,0,5,2.2,5,5s-2.2,5-5,5s-5-2.2-5-5S47.2,45,50,45 M50,44c-3.3,0-6,2.7-6,6s2.7,6,6,6s6-2.7,6-6    S53.3,44,50,44L50,44z"/>
	</g>
</g>
<g>
	<circle class="st7" cx="56.5" cy="43.5" r="1.5"/>
	<path class="st6" d="M56.5,45.5c-1.1,0-2-0.9-2-2s0.9-2,2-2s2,0.9,2,2S57.6,45.5,56.5,45.5z M56.5,42.5c-0.6,0-1,0.4-1,1s0.4,1,1,1   s1-0.4,1-1S57.1,42.5,56.5,42.5z"/>
</g>
</svg>
